<svg viewBox="0 0 100 100" fill="black" stroke="currentColor" strokeWidth="1" xmlns="http://www.w3.org/2000/svg">
  <title>Tanstack Router, Query and Table</title>
  <path d="M72.8 6.5c2.2.8 4 2.4 5.3 4.6 2.1 3.7 2.7 8.5 2 14.4-.4 2.5-1 5.1-1.7 8a43.3 43.3 0 0 1 16.8 8.4c2 1.8 3.2 3.8 3.6 6 .5 2.4 0 4.8-1.2 7-2.2 3.7-6 6.5-11.6 8.8-2.2 1-4.7 1.8-7.5 2.5l.3 1c1.6 7.7 2 13.7 1 18-.7 2.5-1.8 4.6-3.5 6.2a9.7 9.7 0 0 1-6.7 2.3c-4.2 0-8.6-1.9-13.3-5.6-2-1.5-4-3.3-6.1-5.4l-.8 1a43.4 43.4 0 0 1-15.1 9.7c-2.5.7-5 .8-7 0-2.3-.7-4.2-2.3-5.4-4.5a22.7 22.7 0 0 1-2-14.4 62 62 0 0 1 1.8-8.3c-.3 0-.6 0-1-.2a43.3 43.3 0 0 1-16-8.2c-1.8-1.8-3-3.8-3.5-6-.5-2.4 0-4.8 1.2-7 2.2-3.7 6-6.6 11.6-8.9a61 61 0 0 1 7.7-2.5l-.2-.8c-1.6-7.8-2-13.7-1-18 .7-2.6 1.8-4.7 3.5-6.2C25.8 6.8 28.1 6 30.7 6c4.2 0 8.6 2 13.3 5.6 2 1.5 4 3.3 6 5.4l.6-.6a43.4 43.4 0 0 1 15.1-9.8c2.5-.7 5-.8 7 0Zm.8 61.4a144.4 144.4 0 0 1-25.2 2.2h-.5a1.4 1.4 0 0 0-1.1 2.3c9.3 11.6 17 17.4 23 17.4 6.3 0 8-6.8 5.5-20.3V69c-.2-.7-1-1.2-1.7-1ZM29.2 57.2c-.3.2-.5.4-.6.7-5.3 14-6.4 23.5-3.3 28.8 3 5.4 9.9 3.6 20.3-5.4l.4-.2c.5-.6.6-1.4.1-2a147 147 0 0 1-14.7-21l-.3-.4c-.4-.7-1.2-.9-1.9-.5Zm26.5-23H43.6a5 5 0 0 0-4.3 2.6l-6 10.6a5 5 0 0 0 0 4.9l6 10.6a5 5 0 0 0 4.3 2.5h12a5 5 0 0 0 4.4-2.5l6-10.6a5 5 0 0 0 0-5l-6-10.5a5 5 0 0 0-4.3-2.5Zm21.5 4.4a147.1 147.1 0 0 1-11 23.5 1.4 1.4 0 0 0 1.4 2.1C82.2 61.8 91 58 94 52.7c3.1-5.4-1.8-10.3-14.7-14.8l-.4-.2c-.7-.2-1.5.2-1.7.9Zm-44.8-3.3C17.8 37.7 9 41.5 6 46.8 2.9 52.2 7.8 57 20.7 61.6l.4.2c.7.2 1.5-.2 1.7-.9a147.1 147.1 0 0 1 11-23.5 1.4 1.4 0 0 0-1.4-2.1Zm42.3-22c-3-5.4-9.9-3.6-20.3 5.4l-.4.2c-.5.6-.6 1.4-.1 2a147 147 0 0 1 14.7 21l.3.4a1.4 1.4 0 0 0 2.5-.2c5.3-14 6.4-23.5 3.3-28.8Zm-44-3.2c-6.2 0-8 6.7-5.5 20.3l.1.4c.2.8.9 1.2 1.6 1.1a144.4 144.4 0 0 1 25.3-2.2h.5a1.4 1.4 0 0 0 1-2.3c-9.3-11.6-17-17.3-23-17.3Z" />
</svg>