<svg viewBox="0 0 24 24" xmlns="http://www.w3.org/2000/svg">
  <title>Vite and Turborepo</title>
  <path d="m8.3 10.6.5-8.7a.3.3 0 0 1 .2-.3L17.4 0a.3.3 0 0 1 .3.4l-1.5 5.4a.3.3 0 0 0 .3.4l2.4-.5a.3.3 0 0 1 .3.5l-6.7 13.5-.2.2a.3.3 0 0 1-.2.1c-.2 0-.4-.1-.3-.3l1-5.3a.3.3 0 0 0-.3-.4l-1.5.4a.3.3 0 0 1-.3-.3l.6-3.4a.3.3 0 0 0-.3-.3l-2.3.5a.3.3 0 0 1-.4-.3zm15-8-6 1.1-.6 2 2.1-.5a.8.8 0 0 1 .9.4.8.8 0 0 1 0 .8l-6.8 13.5-.2.3a.8.8 0 0 1-.6.3.8.8 0 0 1-.7-.3.8.8 0 0 1-.1-.6l1-5-1.1.3a.8.8 0 0 1-.9-.2.8.8 0 0 1-.1-.7l.6-3-2 .4A.8.8 0 0 1 8 11a.8.8 0 0 1-.2-.6L8.2 4 .7 2.6a.6.6 0 0 0-.6 1l11.5 20a.6.6 0 0 0 1 0L24 3.7a.6.6 0 0 0-.6-1z" />
</svg>