<svg width="461.498px" height="130" viewBox="0 0 461.498 130.66" version="1.1" xmlns="http://www.w3.org/2000/svg" xmlns:xlink="http://www.w3.org/1999/xlink">
    <g id="Page-1" stroke="none" stroke-width="1" fill="none" fill-rule="evenodd">
        <g id="logo" fill-rule="nonzero">
            <path d="M88.96,0 C111.99,0 130.66,18.67 130.66,41.7 L130.66,88.96 C130.66,111.99 111.99,130.66 88.96,130.66 L41.7,130.66 C18.67,130.66 0,111.99 0,88.96 L0,41.7 C0,18.67 18.67,0 41.7,0 L88.96,0 L88.96,0 Z M75.06,41.7 L55.6,41.7 C47.923,41.7 41.7,47.923 41.7,55.6 L41.7,75.06 C41.7,82.737 47.923,88.96 55.6,88.96 L75.06,88.96 C82.737,88.96 88.96,82.737 88.96,75.06 L88.96,55.6 C88.96,47.923 82.737,41.7 75.06,41.7 Z" id="Shape" fill="#333"></path>
            <path d="M83.4,13.9 C101.824,13.9 116.76,28.836 116.76,47.26 L116.76,83.4 C116.76,101.824 101.824,116.76 83.4,116.76 L47.26,116.76 C28.836,116.76 13.9,101.824 13.9,83.4 L13.9,47.26 C13.9,28.836 28.836,13.9 47.26,13.9 L83.4,13.9 Z M75.06,41.7 L55.6,41.7 C47.923,41.7 41.7,47.923 41.7,55.6 L41.7,75.06 C41.7,82.737 47.923,88.96 55.6,88.96 L75.06,88.96 C82.737,88.96 88.96,82.737 88.96,75.06 L88.96,55.6 C88.96,47.923 82.737,41.7 75.06,41.7 Z" id="Shape" fill-opacity="0.4" fill="#FFFFFF"></path>
            <path d="M77.84,27.8 C91.658,27.8 102.86,39.002 102.86,52.82 L102.86,77.84 C102.86,91.658 91.658,102.86 77.84,102.86 L52.82,102.86 C39.002,102.86 27.8,91.658 27.8,77.84 L27.8,52.82 C27.8,39.002 39.002,27.8 52.82,27.8 L77.84,27.8 L77.84,27.8 Z M75.06,41.7 L55.6,41.7 C47.923,41.7 41.7,47.923 41.7,55.6 L41.7,75.06 C41.7,82.737 47.923,88.96 55.6,88.96 L75.06,88.96 C82.737,88.96 88.96,82.737 88.96,75.06 L88.96,55.6 C88.96,47.923 82.737,41.7 75.06,41.7 Z" id="Shape" fill-opacity="0.5" fill="#FFFFFF"></path>
            <g id="Group" transform="translate(167,93, 17,83)" fill="#333333">
                <path d="M32,88.96 C26.247,88.96 20.934,87.696 16.06,85.167 C11.186,82.637 7.29,79.002 4.374,74.261 C1.458,69.519 -2.84217094e-14,63.947 -2.84217094e-14,57.546 C-2.84217094e-14,51.145 1.458,45.573 4.374,40.831 C7.291,36.09 11.186,32.454 16.06,29.925 C20.934,27.396 26.247,26.132 32,26.132 C36.234,26.132 39.89,26.665 42.966,27.732 C45.9689768,28.7640506 48.8440074,30.1363082 51.535,31.822 C53.133,32.849 53.932,34.232 53.932,35.972 C53.932,37.157 53.472,38.243 52.554,39.231 C51.634,40.219 50.576,40.713 49.378,40.713 C48.498,40.713 47.62,40.476 46.741,40.002 C44.104,38.658 41.847,37.69 39.97,37.097 C38.092,36.505 35.755,36.208 32.958,36.208 C26.088,36.208 20.694,38.164 16.778,42.076 C12.864,45.988 10.906,51.145 10.906,57.546 C10.906,63.947 12.864,69.104 16.779,73.016 C20.694,76.928 26.087,78.884 32.959,78.884 C35.755,78.884 38.092,78.587 39.969,77.994 C41.847,77.402 44.104,76.434 46.741,75.09 C47.62,74.616 48.499,74.38 49.378,74.38 C50.576,74.38 51.635,74.873 52.554,75.861 C53.473,76.849 53.932,77.935 53.932,79.121 C53.932,80.86 53.133,82.243 51.535,83.27 C48.8436919,84.9557604 45.9683221,86.3280197 42.965,87.36 C39.89,88.427 36.235,88.96 32,88.96 L32,88.96 Z M107.092,88.96 C97.47,88.96 89.957,86.214 84.554,80.721 C79.151,75.229 76.45,67.504 76.45,57.546 C76.45,51.935 77.475,46.759 79.526,42.016 C81.576,37.276 84.732,33.442 88.991,30.518 C93.251,27.594 98.495,26.132 104.726,26.132 C110.563,26.132 115.611,27.495 119.87,30.222 C124.129,32.948 127.363,36.584 129.571,41.128 C131.78,45.672 132.884,50.631 132.884,56.005 C132.884,57.506 132.391,58.771 131.405,59.798 C130.419,60.826 129.098,61.339 127.442,61.339 L87.335,61.339 C87.965,66.871 90.016,71.179 93.487,74.261 C96.957,77.343 101.807,78.884 108.039,78.884 C111.352,78.884 114.25,78.568 116.735,77.935 C119.251413,77.2909684 121.690896,76.3770004 124.011,75.209 C124.641,74.893 125.351,74.735 126.141,74.735 C127.402,74.735 128.507,75.169 129.453,76.039 C130.399,76.909 130.873,78.014 130.873,79.358 C130.873,81.097 129.847,82.558 127.797,83.744 C124.721,85.483 121.684,86.787 118.687,87.656 C115.69,88.526 111.825,88.96 107.092,88.96 L107.092,88.96 Z M122.236,52.567 C121.999,48.695 120.994,45.455 119.219,42.847 C117.445,40.239 115.256,38.322 112.653,37.097 C110.05,35.872 107.408,35.26 104.726,35.26 C102.044,35.26 99.402,35.872 96.799,37.097 C94.197,38.322 92.028,40.239 90.292,42.847 C88.557,45.455 87.572,48.695 87.335,52.567 L122.236,52.567 Z M165.349,88.404 C163.801,88.404 162.498,87.886 161.439,86.851 C160.379,85.816 159.85,84.541 159.85,83.028 L159.85,5.495 C159.85,3.982 160.38,2.688 161.439,1.613 C162.498,0.538 163.801,0 165.349,0 C166.979,0 168.322,0.518 169.381,1.553 C170.441,2.588 170.97,3.903 170.97,5.495 L170.97,83.028 C170.97,84.541 170.42,85.816 169.32,86.851 C168.22,87.886 166.897,88.404 165.349,88.404 Z M207.883,88.404 C206.335,88.404 205.032,87.886 203.973,86.851 C202.913,85.816 202.384,84.541 202.384,83.028 L202.384,5.495 C202.384,3.982 202.914,2.688 203.973,1.613 C205.032,0.538 206.335,0 207.883,0 C209.513,0 210.856,0.518 211.915,1.553 C212.975,2.588 213.504,3.903 213.504,5.495 L213.504,83.028 C213.504,84.541 212.954,85.816 211.854,86.851 C210.754,87.886 209.431,88.404 207.883,88.404 Z M260.051,88.96 C256.528,88.96 253.264,88.249 250.261,86.826 C247.257,85.404 244.875,83.329 243.113,80.603 C241.351,77.876 240.47,74.735 240.47,71.178 C240.47,65.33 242.813,60.668 247.498,57.19 C252.183,53.713 259.05,51.974 268.1,51.974 L282.636,51.974 L282.636,51.026 C282.636,45.81 281.335,42.056 278.732,39.764 C276.129,37.473 272.065,36.327 266.538,36.327 C263.495,36.327 260.792,36.564 258.43,37.038 C256.067,37.512 253.444,38.223 250.561,39.172 C249.921,39.33 249.4,39.409 248.999,39.409 C247.798,39.409 246.757,38.974 245.876,38.105 C244.995,37.235 244.554,36.169 244.554,34.905 C244.554,32.77 245.596,31.269 247.678,30.4 C254.485,27.555 261.413,26.132 268.461,26.132 C273.987,26.132 278.651,27.238 282.456,29.452 C286.26,31.664 289.063,34.529 290.865,38.046 C292.667,41.562 293.568,45.376 293.568,49.485 L293.568,83.033 C293.568,84.534 293.028,85.799 291.946,86.826 C290.865,87.854 289.564,88.367 288.042,88.367 C286.52,88.367 285.239,87.854 284.198,86.827 C283.157,85.799 282.636,84.534 282.636,83.033 L282.636,79.951 C276.71,85.957 269.181,88.96 260.051,88.96 L260.051,88.96 Z M264.136,79.477 C267.66,79.477 271.063,78.627 274.347,76.927 C277.631,75.229 280.394,73.115 282.637,70.586 L282.637,60.628 L269.542,60.628 C257.449,60.628 251.402,63.75 251.402,69.993 C251.402,72.838 252.383,75.13 254.345,76.869 C256.307,78.607 259.571,79.477 264.135,79.477 L264.136,79.477 Z" id="Shape"></path>
            </g>
        </g>
    </g>
</svg>