<?xml version="1.0" encoding="UTF-8"?>
<svg width="500px" height="500px" viewBox="0 0 500 500" version="1.1" xmlns="http://www.w3.org/2000/svg" xmlns:xlink="http://www.w3.org/1999/xlink">
    <title>Frame</title>
    <g id="Frame" stroke="none" fill="none" fill-rule="evenodd" stroke-width="1">
        <g id="Group" transform="translate(15, 15)">
            <path d="M319.276596,2 C401.414549,2 468,68.5854511 468,150.723404 L468,319.276596 C468,401.414549 401.414549,468 319.276596,468 L150.723404,468 C68.5854511,468 2,401.414549 2,319.276596 L2,150.723404 C2,68.5854511 68.5854511,2 150.723404,2 L319.276596,2 Z M280.9,133 L189.1,133 C158.11648,133 133,158.11648 133,189.1 L133,280.9 C133,311.88352 158.11648,337 189.1,337 L280.9,337 C311.88352,337 337,311.88352 337,280.9 L337,189.1 C337,158.11648 311.88352,133 280.9,133 Z" id="Band-Back" fill="#CCCCCC"></path>
            <path d="M320,0 C402.843,0 470,67.157 470,150 L470,320 C470,402.843 402.843,470 320,470 L150,470 C67.157,470 0,402.843 0,320 L0,150 C0,67.157 67.157,0 150,0 L320,0 Z M320,35 L150,35 C86.487,35 35,86.487 35,150 L35,320 C35,383.513 86.487,435 150,435 L320,435 C383.513,435 435,383.513 435,320 L435,150 C435,86.487 383.513,35 320,35 Z" id="Band-Outer" fill="#222222"></path>
            <path d="M280,100 C329.706,100 370,140.294 370,190 L370,280 C370,329.706 329.706,370 280,370 L190,370 C140.294,370 100,329.706 100,280 L100,190 C100,140.294 140.294,100 190,100 L280,100 Z M280,135 L190,135 C159.624,135 135,159.624 135,190 L135,280 C135,310.376 159.624,335 190,335 L280,335 C310.376,335 335,310.376 335,280 L335,190 C335,159.624 310.376,135 280,135 Z" id="Band-Inner" fill="#222222"></path>
        </g>
    </g>
</svg>