<?xml version="1.0" encoding="UTF-8"?>
<svg width="1800px" height="600px" viewBox="0 0 1800 600" version="1.1" xmlns="http://www.w3.org/2000/svg" xmlns:xlink="http://www.w3.org/1999/xlink">
    <title>Frame</title>
    <g id="Frame" stroke="none" fill="none" fill-rule="evenodd" stroke-width="1">
        <g id="Group" transform="translate(71.97, 59.97)">
            <path d="M318.234043,3.06 C399.843211,3.06 466,69.2167894 466,150.825957 L466,318.294043 C466,399.903211 399.843211,466.06 318.234043,466.06 L150.765957,466.06 C69.1567894,466.06 3,399.903211 3,318.294043 L3,150.825957 C3,69.2167894 69.1567894,3.06 150.765957,3.06 L318.234043,3.06 Z M280.505,133.33 L189.155,133.33 C158.32336,133.33 133.33,158.32336 133.33,189.155 L133.33,280.505 C133.33,311.33664 158.32336,336.33 189.155,336.33 L280.505,336.33 C311.33664,336.33 336.33,311.33664 336.33,280.505 L336.33,189.155 C336.33,158.32336 311.33664,133.33 280.505,133.33 Z" id="Band-Back" fill="#CCCCCC"></path>
            <path d="M319.36,0 C402.037314,0 469.06,67.022686 469.06,149.7 L469.06,319.36 C469.06,402.037314 402.037314,469.06 319.36,469.06 L149.7,469.06 C67.022686,469.06 0,402.037314 0,319.36 L0,149.7 C0,67.022686 67.022686,0 149.7,0 L319.36,0 Z M319.36,34.93 L149.7,34.93 C86.314026,34.93 34.93,86.314026 34.93,149.7 L34.93,319.36 C34.93,382.745974 86.314026,434.13 149.7,434.13 L319.36,434.13 C382.745974,434.13 434.13,382.745974 434.13,319.36 L434.13,149.7 C434.13,86.314026 382.745974,34.93 319.36,34.93 Z" id="Band-Outer" fill="#222222"></path>
            <path d="M279.44,99.8 C329.046588,99.8 369.26,140.013412 369.26,189.62 L369.26,279.44 C369.26,329.046588 329.046588,369.26 279.44,369.26 L189.62,369.26 C140.013412,369.26 99.8,329.046588 99.8,279.44 L99.8,189.62 C99.8,140.013412 140.013412,99.8 189.62,99.8 L279.44,99.8 Z M279.44,134.73 L189.62,134.73 C159.304752,134.73 134.73,159.304752 134.73,189.62 L134.73,279.44 C134.73,309.755248 159.304752,334.33 189.62,334.33 L279.44,334.33 C309.755248,334.33 334.33,309.755248 334.33,279.44 L334.33,189.62 C334.33,159.304752 309.755248,134.73 279.44,134.73 Z" id="Band-Inner" fill="#222222"></path>
        </g>
        <g id="Group" transform="translate(657, 103)" fill="#222222">
            <path d="M57.769,306.355 C40.237,297.258 26.226,284.181 15.736,267.125 C5.246,250.068 0,230.026 0,207 C0,183.974 5.245,163.932 15.736,146.875 C26.226,129.819 40.237,116.742 57.769,107.645 C75.3,98.548 94.413,94 115.107,94 C130.339,94 143.488,95.919 154.553,99.757 C165.619,103.594 175.893,108.498 185.378,114.467 C191.126,118.164 194,123.138 194,129.392 C194,133.657 192.347,137.565 189.042,141.119 C185.737,144.672 181.929,146.449 177.618,146.449 C174.456,146.449 171.295,145.596 168.133,143.891 C158.649,139.058 150.53,135.575 143.776,133.443 C137.021,131.311 128.615,130.245 118.556,130.245 C93.839,130.245 74.439,137.281 60.356,151.353 C46.273,165.425 39.231,183.973 39.231,207 C39.231,230.026 46.273,248.575 60.356,262.647 C74.439,276.719 93.839,283.755 118.556,283.755 C128.615,283.755 137.021,282.689 143.776,280.557 C150.53,278.425 158.649,274.942 168.133,270.109 C171.295,268.404 174.456,267.551 177.618,267.551 C181.928,267.551 185.737,269.328 189.042,272.881 C192.347,276.435 194,280.343 194,284.608 C194,290.862 191.126,295.836 185.378,299.532 C175.893,305.502 165.618,310.406 154.553,314.243 C143.488,318.081 130.339,320 115.107,320 C94.413,320 75.301,315.452 57.769,306.355 Z M385.224,320.001 C350.611,320.001 323.587,310.121 304.152,290.364 C284.717,270.607 275,242.82 275,207 C275,186.816 278.688,168.196 286.065,151.14 C293.442,134.083 304.79,120.296 320.111,109.777 C335.431,99.26 354.3,94 376.713,94 C397.708,94 415.866,98.904 431.187,108.711 C446.507,118.519 458.14,131.596 466.084,147.941 C474.028,164.288 478,182.127 478,201.458 C478,206.858 476.227,211.408 472.68,215.103 C469.134,218.798 464.382,220.646 458.423,220.646 L314.153,220.646 C316.423,240.546 323.799,256.039 336.283,267.126 C348.767,278.212 366.215,283.756 388.629,283.756 C400.545,283.756 410.972,282.619 419.909,280.344 C428.846,278.07 437.57,274.801 446.082,270.537 C448.352,269.4 450.905,268.831 453.742,268.831 C458.282,268.831 462.254,270.395 465.658,273.521 C469.063,276.649 470.765,280.629 470.765,285.461 C470.765,291.715 467.077,296.975 459.7,301.239 C448.635,307.493 437.712,312.183 426.93,315.31 C416.15,318.437 402.247,320.001 385.224,320.001 L385.224,320.001 Z M439.698,189.09 C438.847,175.161 435.23,163.506 428.846,154.125 C422.462,144.743 414.589,137.85 405.226,133.443 C395.864,129.037 386.359,126.834 376.713,126.834 C367.066,126.834 357.562,129.037 348.199,133.444 C338.836,137.85 331.034,144.744 324.792,154.124 C318.551,163.506 315.004,175.161 314.153,189.091 L439.698,189.091 L439.698,189.09 Z M594.78,318 C589.212,318 584.524,316.138 580.714,312.414 C576.904,308.689 575,304.105 575,298.662 L575,19.768 C575,14.324 576.905,9.668 580.714,5.801 C584.524,1.934 589.212,0 594.78,0 C600.641,0 605.476,1.862 609.286,5.586 C613.096,9.311 615,14.038 615,19.768 L615,298.662 C615,304.105 613.022,308.689 609.066,312.414 C605.11,316.138 600.348,318 594.78,318 L594.78,318 Z M747.78,318 C742.212,318 737.524,316.138 733.714,312.414 C729.904,308.689 728,304.105 728,298.662 L728,19.768 C728,14.324 729.905,9.668 733.714,5.801 C737.524,1.934 742.212,0 747.78,0 C753.641,0 758.476,1.862 762.286,5.586 C766.096,9.311 768,14.038 768,19.768 L768,298.662 C768,304.105 766.022,308.689 762.066,312.414 C758.11,316.138 753.348,318 747.78,318 L747.78,318 Z M935.437,320 C922.761,320 911.021,317.442 900.218,312.325 C889.415,307.208 880.845,299.745 874.507,289.938 C868.169,280.13 865,268.83 865,256.038 C865,235.001 873.426,218.228 890.28,205.721 C907.132,193.213 931.836,186.958 964.39,186.958 L1016.676,186.958 L1016.676,183.548 C1016.676,164.785 1011.996,151.282 1002.632,143.038 C993.27,134.794 978.649,130.672 958.772,130.672 C947.824,130.672 938.102,131.525 929.602,133.23 C921.104,134.936 911.67,137.494 901.299,140.906 C898.994,141.474 897.121,141.758 895.681,141.758 C891.36,141.758 887.615,140.195 884.446,137.068 C881.276,133.941 879.692,130.103 879.692,125.555 C879.692,117.879 883.437,112.478 890.928,109.351 C915.415,99.117 940.334,94 965.686,94 C985.563,94 1002.344,97.98 1016.028,105.94 C1029.712,113.9 1039.795,124.204 1046.278,136.855 C1052.759,149.505 1056,163.221 1056,178.004 L1056,298.679 C1056,304.081 1054.055,308.629 1050.166,312.325 C1046.277,316.02 1041.596,317.868 1036.122,317.868 C1030.649,317.868 1026.039,316.02 1022.294,312.325 C1018.549,308.629 1016.676,304.081 1016.676,298.679 L1016.676,287.592 C995.358,309.197 968.278,320 935.436,320 L935.437,320 Z M950.129,285.887 C962.805,285.887 975.049,282.831 986.859,276.719 C998.671,270.607 1008.61,263.003 1016.676,253.906 L1016.676,218.086 L969.575,218.086 C926.074,218.086 904.324,229.316 904.324,251.774 C904.324,262.008 907.853,270.252 914.911,276.506 C921.969,282.76 933.708,285.886 950.129,285.886 L950.129,285.887 Z" id="Shape" fill-rule="nonzero"></path>
        </g>
    </g>
</svg>