<?xml version="1.0" encoding="UTF-8"?>
<svg width="500px" height="500px" viewBox="0 0 500 500" version="1.1" xmlns="http://www.w3.org/2000/svg" xmlns:xlink="http://www.w3.org/1999/xlink">
    <g stroke="none" stroke-width="1" fill="none" fill-rule="evenodd">
        <path d="M335,15 C417.842712,15 485,82.1572875 485,165 L485,335 C485,417.842712 417.842712,485 335,485 L165,485 C82.1572875,485 15,417.842712 15,335 L15,165 C15,82.1572875 82.1572875,15 165,15 L335,15 Z M285,165 L215,165 C187.385763,165 165,187.385763 165,215 L165,285 C165,312.614237 187.385763,335 215,335 L285,335 C312.614237,335 335,312.614237 335,285 L335,215 C335,187.385763 312.614237,165 285,165 Z" id="Combined-Shape" fill="#333333"></path>
        <path d="M315,65 C381.27417,65 435,118.72583 435,185 L435,315 C435,381.27417 381.27417,435 315,435 L185,435 C118.72583,435 65,381.27417 65,315 L65,185 C65,118.72583 118.72583,65 185,65 L315,65 Z M285,165 L215,165 C187.385763,165 165,187.385763 165,215 L165,285 C165,312.614237 187.385763,335 215,335 L285,335 C312.614237,335 335,312.614237 335,285 L335,215 C335,187.385763 312.614237,165 285,165 Z" id="Combined-Shape" fill-opacity="0.2" fill="#FFFFFF"></path>
        <path d="M295,115 C344.705627,115 385,155.294373 385,205 L385,295 C385,344.705627 344.705627,385 295,385 L205,385 C155.294373,385 115,344.705627 115,295 L115,205 C115,155.294373 155.294373,115 205,115 L295,115 Z M285,165 L215,165 C187.385763,165 165,187.385763 165,215 L165,285 C165,312.614237 187.385763,335 215,335 L285,335 C312.614237,335 335,312.614237 335,285 L335,215 C335,187.385763 312.614237,165 285,165 Z" id="Combined-Shape" fill-opacity="0.4" fill="#FFFFFF"></path>
    </g>
</svg>