<svg xmlns="http://www.w3.org/2000/svg" width="500" height="500">
  <g fill="none" fill-rule="evenodd">
    <path fill="#333" d="M335 15a150 150 0 0 1 150 150v170a150 150 0 0 1-150 150H165A150 150 0 0 1 15 335V165A150 150 0 0 1 165 15h170Zm-50 150h-70a50 50 0 0 0-50 50v70a50 50 0 0 0 50 50h70a50 50 0 0 0 50-50v-70a50 50 0 0 0-50-50Z"/>
    <path fill="#FFF" fill-opacity=".4" d="M315 65a120 120 0 0 1 120 120v130a120 120 0 0 1-120 120H185A120 120 0 0 1 65 315V185A120 120 0 0 1 185 65h130Zm-30 100h-70a50 50 0 0 0-50 50v70a50 50 0 0 0 50 50h70a50 50 0 0 0 50-50v-70a50 50 0 0 0-50-50Z"/>
    <path fill="#FFF" fill-opacity=".5" d="M295 115a90 90 0 0 1 90 90v90a90 90 0 0 1-90 90h-90a90 90 0 0 1-90-90v-90a90 90 0 0 1 90-90h90Zm-10 50h-70a50 50 0 0 0-50 50v70a50 50 0 0 0 50 50h70a50 50 0 0 0 50-50v-70a50 50 0 0 0-50-50Z"/>
  </g>
</svg>