<svg xmlns="http://www.w3.org/2000/svg" xmlns:xlink="http://www.w3.org/1999/xlink" width="150" height="150">
    <g fill="#000" fill-rule="nonzero">
        <path id="b" d="M112.9 59c.6 5.7.3 11.4-1 16.9v.5-.2l-.2.7a3.4 3.4 0 0 1-6.1.8L92 66.7l-.2-.1c-.7-.6-1-1.5-1-2.4l-.2-2.2v-.5a29.7 29.7 0 0 0-59.1 5.7v.5a29.7 29.7 0 0 0 45.1 22.1l.5-.2a3.4 3.4 0 1 1 3.6 5.6 36.4 36.4 0 1 1 16.5-35v.6l.2 1.6 8.8 7.2c.3-3 .3-6.1 0-9v-.9c-2.6-25-25-43-50-40.4h-.8a45.6 45.6 0 1 0 33 81.6l.5-.3c.7-.6 1.7-.7 2.5-.5.7 0 1.4.3 2 .7l13.4 11c.7.6 1.2 1.4 1.3 2.4l1 10.1 5.7 5.4L116 116a3.6 3.6 0 0 1 2.6-3l.2-.1L131 110l-5.4-4.3-10.2.3c-.8 0-1.6-.3-2.3-.8L65.7 66.8l-.2-.1A3.5 3.5 0 0 1 65 62l.1-.2 3.4-4.2-16.3-1.4 6.2 18.4-1 .3 1-.3a3.4 3.4 0 1 1-6.4 2l-7.6-22.8c-.4-1-.2-2.2.4-3.2l.1-.1c.7-.9 1.6-1.3 2.7-1.4h.4l27 2.4c1.2 0 2.3.8 2.9 2v.1c.5 1.2.4 2.5-.3 3.5l-.1.1-5.2 6.4 44 35.6 10.3-.3c.9 0 1.7.3 2.4.9l11.2 9c1 .9 1.5 2.1 1.3 3.4v.2a3.6 3.6 0 0 1-2.5 2.6h-.2l-16.3 3.9-1.6 18a3.6 3.6 0 0 1-5.9 2.3v-.1l-11.3-10.7c-.6-.5-1-1.3-1-2l-.1-.2-1-10-10.8-8.7c-6.9 4.8-15 7.8-23.8 8.8l-.6.1A52.2 52.2 0 0 1 8.9 70V69a52.3 52.3 0 0 1 46.6-56.5h.8A52.2 52.2 0 0 1 112.9 59Z"/>
    </g>
</svg>