<svg xmlns="http://www.w3.org/2000/svg" width="275" height="150">
  <g fill="#333">
    <path d="M47.8 60.8v21c0 1.2-.3 2-1 2.8-.7.7-1.5 1-2.6 1a3.7 3.7 0 0 1-3.8-3.7V40.8c0-1.2.4-2.1 1.1-2.7.8-.6 1.7-1 2.7-1a4 4 0 0 1 2.4 1c.8.6 1.2 1.5 1.2 2.7v4a13 13 0 0 1 6.6-6.3c3-1.4 6-2.1 8.7-2.1 1.6 0 3.2.2 4.9.8 1 .3 1.9 1 2.4 1.8.5.9.5 1.9.2 3-.7 2.1-2.2 3-4.4 2.6-2-.6-3.6-.8-5-.8-4.2 0-7.5 1.6-9.9 4.8a20.2 20.2 0 0 0-3.5 12.2ZM99 85.6a22 22 0 0 1-16.7-7 25.2 25.2 0 0 1-6.6-18c0-7 2.2-12.9 6.6-17.4 4.4-4.6 10-6.8 16.7-6.8 7 0 12.7 2.4 17 7.4v-3c0-1.2.4-2.1 1.1-2.7a4 4 0 0 1 2.5-1c1 0 1.8.4 2.6 1s1.2 1.5 1.2 2.7v41a3.7 3.7 0 0 1-3.8 3.8c-1.1 0-2-.3-2.6-1-.7-.7-1-1.6-1-2.7v-4c-2 2.4-4.4 4.3-7.3 5.7-3 1.4-6.1 2-9.7 2Zm0-6.7c5.2 0 9.3-1.5 12.4-4.6 3-3 4.6-7.6 4.6-13.6 0-5.8-1.6-10.2-4.6-13.2A17 17 0 0 0 99 43.1c-4.7 0-8.5 1.7-11.4 5a18.6 18.6 0 0 0-4.3 12.6c0 5.1 1.4 9.4 4.3 13 3 3.5 6.7 5.2 11.4 5.2ZM158.2 85.6a22 22 0 0 1-16.8-7 25.2 25.2 0 0 1-6.5-18c0-7 2.2-12.9 6.5-17.4 4.4-4.6 10-6.8 16.8-6.8 7 0 12.6 2.4 17 7.4v-3c0-1.2.3-2.1 1-2.7a4 4 0 0 1 2.5-1c1 0 1.9.4 2.7 1 .7.6 1.1 1.5 1.1 2.7v41a3.7 3.7 0 0 1-3.8 3.8c-1 0-2-.3-2.6-1-.7-.7-1-1.6-1-2.7v-4c-2 2.4-4.4 4.3-7.3 5.7-2.9 1.4-6.1 2-9.6 2Zm0-6.7c5.1 0 9.3-1.5 12.3-4.6 3-3 4.6-7.6 4.6-13.6 0-5.8-1.5-10.2-4.6-13.2a17 17 0 0 0-12.3-4.4c-4.7 0-8.5 1.7-11.4 5a18.6 18.6 0 0 0-4.4 12.6c0 5.1 1.5 9.4 4.4 13 2.9 3.5 6.7 5.2 11.4 5.2ZM200.3 85.6a3.7 3.7 0 0 1-3.8-3.7v-65c0-1.1.4-2 1.1-2.6.8-.6 1.7-1 2.7-1a4 4 0 0 1 2.4 1c.8.6 1.2 1.5 1.2 2.7v33c0 1.9.5 2.8 1.6 2.8.6 0 1.1-.2 1.7-.7l22-15.2c.6-.4 1.3-.5 2-.5 1 0 1.8.3 2.5 1s1 1.6 1 2.7c0 1.4-.6 2.4-2 3.3l-18.5 12.2c-.7.5-1.1 1.1-1.1 1.8 0 .6.4 1.4 1.1 2.1l19.9 19.2c.4.4.7.8.8 1.2l.2 1.3c0 1.1-.4 2-1.2 2.8a4 4 0 0 1-3 1.1c-.6 0-1.3-.2-2-.8L207 62.2c-.8-.8-1.4-1.2-2-1.2-.7 0-1.1 1-1.1 2.8v18c0 1.2-.4 2-1 2.8-.7.7-1.5 1-2.6 1Z"/>
  </g>
</svg>