<svg viewBox="0 0 600 600" xmlns="http://www.w3.org/2000/svg">
  <title>API Docs</title>
  <path d="M158.6 345H.3v2.3l.3 4.4.2 2c0 1.6.2 3.4.4 5v1.2a262.4 262.4 0 0 0 1.6 12.5 266 266 0 0 0 8.2 37.4v.1A258.2 258.2 0 0 0 13 416l.1.4 1.7 5.2.5 1.3a305.8 305.8 0 0 0 2.4 6.5L19 433a135 135 0 0 0 2.4 5.6l1.6 3.6.9 2 2 4.3.6 1.3a306 306 0 0 0 2.4 4.8l.4.7 2.7 5.3.2.2c.1.4.4.7.6 1.1L168 380.6l.5-.3a108.1 108.1 0 0 1-10-35.4z" />
  <path d="m197.5 417.6-.4.4L85.6 529.5l1.7 1.6 3.2 2.8 1.6 1.4 3.8 3.2 1 .9a255.6 255.6 0 0 0 5 4 252.6 252.6 0 0 0 5 3.7 266.5 266.5 0 0 0 20.8 14.1l.7.5 4.1 2.4 2.6 1.5a143.5 143.5 0 0 0 7.3 4l12.4 6 4-9.6 56-136.2.2-.5c-6.1-3.3-12-7.2-17.5-11.7z" />
  <path d="M185.9 406.5a95.5 95.5 0 0 1-3.5-4.1 100.7 100.7 0 0 1-8.9-12.6L38.2 471.3a249.3 249.3 0 0 0 6.6 10.5l.1.1.2.3.6.9a277 277 0 0 0 7.3 10.3l.2.2.1.2 3.3 4.3.5.5c1 1.5 2.3 3 3.5 4.4l.8 1a295 295 0 0 0 4.7 5.4l2.8 3.2 1.6 1.7.7.8 2 2.2 1 1 3.7 3.8 111.6-111.7a95.5 95.5 0 0 1-3.6-4z" />
  <path d="m333.9 417.5-3.7 3 .2.4L411.8 556a247.2 247.2 0 0 0 34-26.5L334.3 418z" />
  <path d="m400 557.1-2.8-4.6-76-126-4.6 2.5-4.8 2.4a108 108 0 0 1-77 6c-1.7-.5-3.4-1.2-5-1.8-1.8-.6-3.5-1-5.1-1.8l-56 136.1-2.3 5.3-1.8 4.6.4.2.4.2h.2l4 1.6 5 1.9 2.5 1a267.4 267.4 0 0 0 54.2 13l2.2.2 2.2.3 4.3.4 1 .1 5.3.4 1.8.2 4.6.2 2.8.1 3.7.2h6.5a266.3 266.3 0 0 0 44.8-3.7l4.6-.9 2.7-.5 2.7-.6 4.5-1 .8-.1a266.5 266.5 0 0 0 63.7-23.8l4-2.2 4.6-2.6 3.2-1.8h.1v-.1l-.1-.3.1.3h.1l.2-.2 1-.6zM197.5 251l3.8-2.9-.3-.4-81.4-135.2a256.8 256.8 0 0 0-34 26.6L197 250.5z" />
  <path d="m77.9 146.4-3.8 3.9-3.6 3.8a266.2 266.2 0 0 0-22.6 28l-1 1.4-2.2 3.3a192 192 0 0 0-3.2 4.8 265 265 0 0 0-41.2 132l-.2 5.3v5.3H158l.2-5.3.3-5.4c2-20.6 10-40.6 23.8-57.5l3.6-4 3.6-4zm325.8-39.2-.6-.4-4.2-2.5-2.5-1.4-2.4-1.3a901.4 901.4 0 0 0-4.3-2.4c-.3 0-.5-.2-.7-.3a265.7 265.7 0 0 0-29.3-13.1l-6.3-2.3a267 267 0 0 0-53.2-12.6l-2.3-.3-2.2-.3-4.3-.5h-1.2l-5-.5-2-.1-4.5-.3h-2.3V227c8.1.9 16.2 2.6 24 5.2l116.5-116.5c-4.3-3-8.7-5.9-13.2-8.6z" />
  <path d="m260.4 68.7-5.4.1c-11.2.5-22.3 1.6-33.4 3.5h-.7l-4.6 1c-1 0-1.8.3-2.7.4a131.5 131.5 0 0 0-7.2 1.6l-.8.2a267.5 267.5 0 0 0-63.7 23.7l-4 2.2-4.6 2.7-3.5 2h-.2c-.3.3-.7.4-1 .6l2.8 4.6L210.2 242a113.3 113.3 0 0 1 9.4-5 107.3 107.3 0 0 1 35.4-9.9 106 106 0 0 1 10.7-.6v-158l-5.3.2z" />
  <path d="m531 321.2-.2-4.3a75.4 75.4 0 0 0-.1-2.1 169 169 0 0 0-.5-5v-1.3a258 258 0 0 0-.7-5.6v-.7l-.8-6v-.2a266.5 266.5 0 0 0-8.2-37.3l-.1-.2-1.8-5.7-.2-.8-1.7-5-.5-1.5-1.6-4.4-.8-2a143.8 143.8 0 0 0-2.6-6.6l-1.2-2.8-1.6-3.6-.9-2a408 408 0 0 0-2-4.3l-.6-1.3-2.4-4.8-.3-.7-2.8-5.3-.1-.2a267 267 0 0 0-15.1-24.5L367.6 299.6c2.7 7.8 4.4 15.8 5.2 24h158.4l-.1-2.4z" />
  <path d="m373.4 334.2-.2 5.4c-.1 1.8-.1 3.6-.3 5.3-2 20.6-10 40.7-23.8 57.6l-3.6 4-3.6 3.9 111.7 111.7 3.7-4 3.7-3.8c8.2-9 15.8-18.3 22.6-28l.8-1.2 2.4-3.6 2.1-3.2 1-1.6a264.8 264.8 0 0 0 41.4-137.1v-5.4z" />
  <path d="M578.3 21.7a74 74 0 0 0-118.6 85.1L298.6 268a74 74 0 1 0 33.3 33.4l161.2-161.2a74 74 0 0 0 85.2-118.5z" />
</svg>