<svg viewBox="0 0 15.024172 17.795792" xmlns="http://www.w3.org/2000/svg">
  <title>Yjs</title>
  <path d="m10.04106 0c-.76895.008-1.31878.38862-1.64951 1.14102l-2.37919 5.5392v.0217l1.72651 2.59209 3.91449-6.71432c.32246-.55396.30593-1.12448-.0496-1.71152C11.24825.28939 10.73562 0 10.06589 0Z"/>
  <path d="m6.01236 6.68797-2.01434 2.7218.0155.0284v4.41523c0 .61185.1819 1.09968.5457 1.46348.35554.3638.78549.5457 1.28985.5457h.0496c.0406 0 .074-.0198.11369-.0222Zm1.72651 2.60604L6.01236 6.70192v9.13846c.44556-.0273.84213-.18945 1.17616-.52348.3638-.35553.5457-.84336.5457-1.46348V9.30176Z"/>
  <path d="M1.8059 0C1.16098.008.65662.29766.29282.86817c-.36381.5705-.38861 1.13688-.0744 1.69912l3.77962 6.84248 2.01434-2.7218v-.008l-.002.005C5.19994 4.89956 4.41446 3.05161 3.65378 1.14164 3.35613.38097 2.80629.00063 2.00427.00063Z"/>
  <g transform="translate(-132.453 -246.636384)">
    <path d="M143.40997 262.00879q0 1.09554-.5426 1.79317-.63562.80099-1.72082.58394-.093-.0155-.23255-.0827-.33073-.16019-.33073-.52193 0-.23254.14986-.39791.15503-.16536.37207-.16536.21705 0 .40308-.0982.45475-.21187.44959-1.00769v-3.43131q0-.29973.21187-.5116.20154-.20671.50643-.20671h.0207q.30489 0 .50643.20671.2067.21187.2067.5116Zm-.22737-4.7439q-.22738.24288-.56328.24288-.32039 0-.5581-.23771-.23771-.23771-.23771-.56327 0-.33073.22737-.56328.22738-.23771.56844-.23771.3359 0 .56328.23771.22737.23772.22737.56328-.005.31006-.22737.5581Z"/>
    <path d="M144.0766 261.70907q.0465-.19637.25321-.3204.18604-.11369.50126-.0103.31523.10335.64079.093.62012-.0103.62012-.38757 0-.17053-.13436-.27905-.13436-.10852-.5426-.25322-1.34359-.46508-1.33325-1.4056.0103-.67696.5271-1.1007.51159-.42375 1.36942-.42375.40308-.005.83199.11369.19121.0517.30489.22737.10852.1757.0517.37724v.005q-.0362.19637-.22738.31523-.1912.11368-.43408.0465-.24805-.0672-.48059-.0775-.55294-.0103-.55294.3669 0 .15503.1602.27906.1602.11885.59428.26871 1.2454.43925 1.25057 1.42627.0103.67696-.50126 1.10071-.5116.41858-1.50379.41858-.52193 0-1.03869-.13953-.18087-.0465-.29973-.24804-.11368-.18604-.0568-.37724Z"/>
  </g>
</svg>