<?xml version="1.0" encoding="UTF-8"?>
<svg width="512px" height="512px" viewBox="0 0 512 512" version="1.1" xmlns="http://www.w3.org/2000/svg" xmlns:xlink="http://www.w3.org/1999/xlink">
    <title>Frame</title>
    <g id="Frame" stroke="none" fill="none" fill-rule="evenodd" stroke-width="1">
        <g id="icon" transform="translate(6, 7)">
            <g id="Group" transform="translate(14.97, 14.97)">
                <path d="M319.36,0 C402.037314,0 469.06,67.022686 469.06,149.7 L469.06,319.36 C469.06,402.037314 402.037314,469.06 319.36,469.06 L149.7,469.06 C67.022686,469.06 0,402.037314 0,319.36 L0,149.7 C0,67.022686 67.022686,0 149.7,0 L319.36,0 Z M279.44,134.73 L189.62,134.73 C159.304752,134.73 134.73,159.304752 134.73,189.62 L134.73,279.44 C134.73,309.755248 159.304752,334.33 189.62,334.33 L279.44,334.33 C309.755248,334.33 334.33,309.755248 334.33,279.44 L334.33,189.62 C334.33,159.304752 309.755248,134.73 279.44,134.73 Z" id="Band-Back" fill="#FFFFFF"></path>
                <path d="M319.36,0 C402.037314,0 469.06,67.022686 469.06,149.7 L469.06,319.36 C469.06,402.037314 402.037314,469.06 319.36,469.06 L149.7,469.06 C67.022686,469.06 0,402.037314 0,319.36 L0,149.7 C0,67.022686 67.022686,0 149.7,0 L319.36,0 Z M319.36,34.93 L149.7,34.93 C86.314026,34.93 34.93,86.314026 34.93,149.7 L34.93,319.36 C34.93,382.745974 86.314026,434.13 149.7,434.13 L319.36,434.13 C382.745974,434.13 434.13,382.745974 434.13,319.36 L434.13,149.7 C434.13,86.314026 382.745974,34.93 319.36,34.93 Z" id="Band-Outer" fill="#000000"></path>
                <path d="M279.44,99.8 C329.046588,99.8 369.26,140.013412 369.26,189.62 L369.26,279.44 C369.26,329.046588 329.046588,369.26 279.44,369.26 L189.62,369.26 C140.013412,369.26 99.8,329.046588 99.8,279.44 L99.8,189.62 C99.8,140.013412 140.013412,99.8 189.62,99.8 L279.44,99.8 Z M279.44,134.73 L189.62,134.73 C159.304752,134.73 134.73,159.304752 134.73,189.62 L134.73,279.44 C134.73,309.755248 159.304752,334.33 189.62,334.33 L279.44,334.33 C309.755248,334.33 334.33,309.755248 334.33,279.44 L334.33,189.62 C334.33,159.304752 309.755248,134.73 279.44,134.73 Z" id="Band-Inner" fill="#000000"></path>
            </g>
        </g>
    </g>
</svg>