<svg xmlns="http://www.w3.org/2000/svg" width="800" height="800" viewBox="0 0 24 24">
<title>Sentry</title>
  <g fill="#b44092">
  <path d="M23.7 21.6a2 2 0 0 0 0-2.3L13.9 2.4c-.4-.7-1.2-1-1.9-1s-1.5.4-2 1L7 8l.7.4c2.4 1.4 4.3 3.3 5.6 5.7 1.2 2 2 4.3 2.1 6.7h-2.2c-.2-2-.8-3.9-1.8-5.7-1-2-2.7-3.7-4.8-4.9L6 9.8l-3 5 .7.5c2 1.2 3.3 3.1 3.6 5.4h-5l-.2-.2s-.2-.1 0-.3l1.3-2.4c-.4-.4-1-.7-1.6-.9L.3 19.3a2 2 0 0 0 0 2.3c.5.7 1 1 2 1h6.9v-.9c0-1.6-.5-3.1-1.2-4.6-.6-1.2-1.5-2.1-2.6-2.9l1-1.9a11.1 11.1 0 0 1 5 9.4v1h5.8v-1c0-3-.7-6-2.4-8.7a15.5 15.5 0 0 0-5.3-5.8l2.2-3.9.3-.1.3.1 9.7 17c.2 0 0 .2 0 .2l-.3.2h-2.2v1.8h2.2c1 .1 1.5-.2 2-1z"/>
  </g>
</svg>
