<svg xmlns="http://www.w3.org/2000/svg" width="33" height="33">
  <title>Tiptap</title>
  <g fill="#000" fill-rule="nonzero">
    <path d="M16.5 0c-2.9 0-5.7.8-8.2 2.3-.5.2-.7.8-.4 1.3.4.4.8.5 1.5.5h14.4c.6 0 1.1-.1 1.5-.5.3-.5.1-1.1-.4-1.3A16.5 16.5 0 0 0 16.7 0h-.2ZM33 16.5c0-1.1-.8-2.1-2-2.1H2.1a2.1 2.1 0 0 0 0 4.3h29c1 0 2-1 2-2.2ZM25.3 29.4c.3.5.1 1.2-.4 1.3-5.1 3-11.5 3-16.6 0-.5-.1-.7-.8-.4-1.3.4-.3.8-.5 1.5-.5h14.4c.6 0 1.1.2 1.5.5ZM2.1 9.3c0-1.2 1-2 2-2H29a2 2 0 0 1 0 4.1H4c-1 0-2-1-2-2.1ZM2.1 23.8c0-1.2 1-2.2 2-2.2H29a2 2 0 0 1 0 4.2H4c-1 0-2-.8-2-2Z"/>
  </g>
</svg>
