<svg xmlns="http://www.w3.org/2000/svg" width="100" height="88" fill="none">
  <title>BlockNote</title>
  <path fill="url(#a)" d="M86.2 50.4 71 41.6c-1-.5-1.3-.3-1.3.8v4.7c0 1.2.7 2.4 1.8 3l11.1 6.5c.7.4 1 1 1 1.8v10.4L65.8 58.5V16c0-3.3-1.7-6.3-4.6-8L49.6 1.3a9.2 9.2 0 0 0-9.2 0L28.8 8a9.2 9.2 0 0 0-4.6 8v16.6c0 1.2.4 1.4 1.4.8l4-2.3a3.6 3.6 0 0 0 1.8-3.2V16a2 2 0 0 1 1-1.7l9-5.2v19.7L26 37.6 5.4 49.5a9.2 9.2 0 0 0-4.6 8v13.4c0 3.2 1.8 6.3 4.6 8L17 85.4a9.2 9.2 0 0 0 9.2 0l13.6-7.8c1-.6 1-1 0-1.6l-4-2.3a3.6 3.6 0 0 0-3.6 0l-9.6 5.5a2 2 0 0 1-2 0l-9-5.2 16.2-9.4 15.4 9 22.2 12.7a9.2 9.2 0 0 0 9.2 0l11.6-6.7a9.2 9.2 0 0 0 4.6-8V58.5c0-3.3-1.7-6.4-4.6-8ZM71 80.2a2 2 0 0 1-2 0L46.8 67.4l-15.4-8.9v-9.7c0-1.2-.3-1.4-1.3-.8l-4 2.3a3.6 3.6 0 0 0-1.9 3.2v5L8 68V57.5a2 2 0 0 1 1-1.8l22.2-12.8 13.8-8 8.5 4.9c1 .5 1.3.3 1.3-.8v-4.7c0-1.3-.7-2.4-1.8-3l-4.4-2.6V9l9 5.2c.7.4 1 1 1 1.8v42.6l-8.4 4.8c-1 .5-1 1 0 1.5l4 2.3c1.2.7 2.6.7 3.7 0l4.3-2.5L80.1 75l-9 5.2Z"/>
  <defs>
    <linearGradient id="a" x1="76.5" x2="28.6" y1="11.2" y2="93.6" gradientUnits="userSpaceOnUse">
      <stop stop-color="#00EBE7"/>
      <stop offset="1" stop-color="#6923BA"/>
    </linearGradient>
  </defs>
</svg>