<svg xmlns="http://www.w3.org/2000/svg" width="1098" height="1553" version="1.2"><path fill-rule="evenodd" d="M0 0h584.4c238 0 395.7 145.5 395.7 363.9 0 106-35.4 192.8-110.7 267.8 146.1 94 228.6 239.5 228.6 401.7 0 296.1-268.4 519.2-626.7 519.2H0zm452.3 1350.6c242.8 0 421.9-138.7 421.9-326.4 0-110.4-63.7-216-167.2-277.4-78 39.9-169.6 77.7-280.6 115.2-124.7 39.8-214.2 143.4-214.2 249v239.6zM211.8 775.1h7.2c23.5-45 87.2-82.4 228.5-127.1C654.9 579.9 756 490.6 756 373.4c0-103.6-77.6-171.3-195.4-171.3H211.8z" style="fill:#0b996e"/></svg>