<?xml version="1.0" encoding="UTF-8"?>
<svg width="200px" height="200px" viewBox="0 0 200 200" version="1.1" xmlns="http://www.w3.org/2000/svg" xmlns:xlink="http://www.w3.org/1999/xlink">
    <title>Artboard</title>
    <g id="Artboard" stroke="none" stroke-width="1" fill="none" fill-rule="evenodd">
        <g id="Group" transform="translate(22,761, 18,875)" fill-rule="nonzero">
            <polygon id="Path" fill="#8179FF" points="92.155 0 57.906 34.249 41.938 18.281 0 60.218 152.374 60.218"></polygon>
            <circle id="Oval" fill="#F77777" cx="80.865" cy="148.041" r="11.773"></circle>
            <path d="M49.4190004,68.125 C66.7890004,68.125 73.0890004,76.045 73.0890004,83.965 L73.0890004,115.285 C73.0890004,123.295 66.7890004,131.125 49.4190004,131.125 L25.7490004,131.125 L25.7490004,68.125 Z M49.4190004,80.635 L41.0490004,80.635 L41.0490004,118.615 L49.4190004,118.615 C53.9190004,118.615 57.7890004,116.905 57.7890004,112.585 L57.7890004,86.665 C57.7890004,82.435 53.9190004,80.635 49.4190004,80.635 Z" id="Combined-Shape" fill="#A985C8"></path>
            <path d="M111.314,67.315 C128.774,67.315 135.254,76.855 135.254,86.215 L135.254,113.035 C135.254,122.395 128.774,131.935 111.314,131.935 C93.944,131.935 87.464,122.395 87.464,113.035 L87.464,86.215 C87.464,76.855 93.944,67.315 111.314,67.315 Z M111.314,79.915 C106.724,79.915 102.944,81.625 102.944,85.945 L102.944,113.305 C102.944,117.625 106.724,119.335 111.314,119.335 C115.814,119.335 119.684,117.625 119.684,113.305 L119.684,85.945 C119.684,81.625 115.814,79.915 111.314,79.915 Z" id="Combined-Shape" fill="#A985C8"></path>
        </g>
    </g>
</svg>