<svg xmlns="http://www.w3.org/2000/svg" width="2000" height="2000" fill="none">
  <title>Novu</title>
  <path fill="url(#a)" fill-rule="evenodd" d="M1540 801.6a60 60 0 0 1-102.9 42L667.2 56.7A998.4 998.4 0 0 1 1000 0c199 0 384.3 58 540 158.2v643.4Zm280-374.1v374.1c0 304.7-370 455.6-583 237.8L409 193.2A998.6 998.6 0 0 0 0 1000c0 213 66.6 410.3 180 572.5v-372.1c0-304.7 370-455.6 583-237.8l826.8 845A998.6 998.6 0 0 0 2000 1000c0-213-66.6-410.3-180-572.5Zm-1257.1 731 768.4 785.3A998.4 998.4 0 0 1 1000 2000c-199 0-384.3-58-540-158.2v-641.4a60 60 0 0 1 102.9-42Z" clip-rule="evenodd"/>
  <defs>
    <linearGradient id="a" x1="2000" x2="0" y1="0" y2="2000" gradientUnits="userSpaceOnUse">
      <stop offset=".2" stop-color="#FF884D"/>
      <stop offset=".8" stop-color="#E300BD"/>
    </linearGradient>
  </defs>
</svg>