<svg xmlns="http://www.w3.org/2000/svg" width="71" height="71">
<title>Gleap</title>
  <g fill="none" fill-rule="evenodd">
    <rect width="71" height="71" fill="#000" fill-rule="nonzero" rx="35.5"/>
    <path fill="#FFF" d="M23 24.6A18 18 0 0 0 19.3 36c0 4 1.1 8.2 3.7 11.4 2.5 3 6.6 5.4 13.3 5.4 7 0 10.6-3.1 12.4-6 1.3-2 1.8-3.6 2-4.6 0-.7.6-1.2 1.3-1.2h3.8c.7 0 1.3.5 1.2 1.2-.2 1.8-.8 4.4-3 7.9-2.9 4.6-8.3 8.9-17.7 8.9-8.4 0-14.4-3-18.2-7.7A24.2 24.2 0 0 1 13 36c0-5 1.4-10.8 5.1-15.3a22 22 0 0 1 17-7.7c.6 0 1.2.5 1.2 1.2V18c0 .6-.6 1.2-1.3 1.2-6 .3-9.7 2.5-12 5.4Z"/>
    <path fill="#FFF" d="M23.2 24.7c-2.4 3-3.5 7-3.5 10.8 0 3.9 1.1 7.9 3.5 10.8 2.3 2.8 6.1 5 12.6 5 6.7 0 10-2.8 11.6-5.5l.7.4C46.2 49 42.8 52 35.8 52c-6.7 0-10.7-2.3-13.2-5.3A17.9 17.9 0 0 1 19 35.5c0-4 1-8.2 3.6-11.3 2.3-2.8 6-5 12-5.3v.8c-5.7.2-9.2 2.3-11.4 5Zm26.8 17c-.2 1-.6 2.4-2 4.5l-.6-.4c1.3-2 1.7-3.4 1.9-4.3m.7.1c.1-.6.6-1.2 1.3-1.2h3.8c.7 0 1.2.6 1.2 1.2-.2 1.8-.8 4.4-3 7.8-2.8 4.6-8.2 8.9-17.5 8.9-8.3 0-14.2-3-18-7.7a24 24 0 0 1-5-15.1 24 24 0 0 1 5-15.2c3.6-4.3 9-7.3 16.7-7.6.7 0 1.3.6 1.3 1.3v3.6c0 .7-.6 1.3-1.3 1.3v.8c1.1-.1 2-1 2-2V14c0-1.1-.9-2-2-2-7.8.3-13.6 3.3-17.3 7.9A24.7 24.7 0 0 0 12 35.5c0 5.1 1.4 11 5.2 15.6 4 4.8 10 7.9 18.6 7.9 9.5 0 15.2-4.4 18.2-9.2a18 18 0 0 0 3-8.1"/>
    <path fill="#FFF" d="m18 20.6-.7-.6A23 23 0 0 1 35 12c1.2 0 2.2 1 2.2 2.2v3.7c0 1.3-1 2.2-2.1 2.3-5.8.2-9.2 2.4-11.4 5-2.4 3-3.5 6.9-3.5 10.8 0 3.9 1.1 7.9 3.5 10.8 2.3 2.8 6.1 5 12.6 5 6.7 0 10-2.8 11.6-5.5l.8.5c-1.8 3-5.3 6-12.4 6-6.7 0-10.8-2.3-13.3-5.4A18.1 18.1 0 0 1 19.3 36c0-4 1-8.3 3.7-11.4 2.3-2.9 6-5.1 12-5.4.7 0 1.3-.6 1.3-1.3v-3.7c0-.7-.6-1.3-1.3-1.2a22 22 0 0 0-17 7.6Zm36 29.5c-2.8 4.6-8.3 9-17.7 9-8.4 0-14.4-3.1-18.2-7.8A24.3 24.3 0 0 1 13 36c0-5 1.4-10.8 5-15.4l-.7-.6A25.2 25.2 0 0 0 12 36c0 5.2 1.4 11.2 5.3 16 4 4.8 10.3 8 19 8 9.7 0 15.5-4.5 18.6-9.4 2.3-3.6 3-6.3 3-8.3.2-1.3-.9-2.3-2-2.3H52c-1.2 0-2 1-2.3 2-.1 1-.5 2.3-1.8 4.3l.8.5c1.4-2 1.8-3.6 2-4.6.1-.7.6-1.2 1.3-1.2h3.8c.7 0 1.3.5 1.2 1.2-.1 1.8-.7 4.5-3 7.9ZM53 34a6 6 0 1 0 0-12 6 6 0 0 0 0 12Z"/>
  </g>
</svg>
