<svg xmlns="http://www.w3.org/2000/svg" viewBox="0 0 27.9 32"><title>Matrix (protocol) logo</title><g fill="#040404"><path d="M27.005 31.205V.705h-2.19v-.732h3.04v32h-3.04v-.732zM8.135 10.405v1.54h.044a4.5 4.5 0 0 1 1.49-1.37c.58-.323 1.25-.485 1.99-.485.72 0 1.38.14 1.97.42q.894.418 1.36 1.48.506-.75 1.38-1.32c.58-.383 1.27-.574 2.06-.574q.904 0 1.67.22.771.222 1.32.707.55.484.859 1.27.308.782.308 1.89v7.63h-3.13v-6.46q0-.574-.044-1.08a2.3 2.3 0 0 0-.242-.882 1.47 1.47 0 0 0-.584-.596q-.385-.22-1.05-.22-.66 0-1.07.253-.408.254-.639.662a2.7 2.7 0 0 0-.308.927 7 7 0 0 0-.078 1.05v6.35h-3.13v-6.4q0-.508-.021-1a2.8 2.8 0 0 0-.188-.916 1.4 1.4 0 0 0-.55-.673q-.386-.252-1.14-.253a2.3 2.3 0 0 0-.584.1 1.95 1.95 0 0 0-.705.374q-.341.276-.584.794t-.242 1.36v6.62h-3.13v-11.4zM.841.737v30.5h2.19v.732h-3.04v-32h3.03v.732z"/></g></svg>