<svg xmlns="http://www.w3.org/2000/svg" id="a" viewBox="0 0 150 150">
  <defs>
    <style>
      .c{fill:#040f11}
    </style>
  </defs>
  <path d="M0 0h150v150H0V0Z" style="fill:none"/>
  <path d="M13.8 14.2h124v124h-124z" style="fill:#ffdd35"/>
  <path d="M37.3 65.7v-3.4A16 16 0 0 0 53 46.6h3.2a15.8 15.8 0 0 0 15.9 15.8v3.3a16 16 0 0 0-15.9 15.8h-3.2c0-4.2-1.6-8.2-4.6-11.2-3-3-7-4.6-11.2-4.6Z" class="c"/>
  <path d="M53.1 40.6h27.3c13.3 0 22.8 9.5 22.8 23.3s-9.5 23.3-22.8 23.3H53.1V127h11.4V97.3h15.9c19.2 0 34.3-15 34.3-33.4S99.6 30.6 80.4 30.6H53.1v10Z" class="c"/>
</svg>
