<svg xmlns="http://www.w3.org/2000/svg" width="800" height="800" viewBox="0 0 512 512">
<title>Scaleway</title>
  <g fill="#b44092">
<path d="M357.8 237.3V359c-1.1 19.5-16 35.4-35.4 37.8h-84.9v.1c-17.2.2-31.3-13.7-31.5-30.9-.1-17.2 13.8-31.2 31.1-31.3h38.4c11.2 0 20.3-9 20.3-20.1v-77.3c0-17 13.9-30.9 31.1-30.9 17 0 30.9 13.9 30.9 30.9m-140.3 37.8v-77.3c0-11.1 9.1-20.2 20.3-20.2h38.5c8.3 0 16.3-3.4 22.1-9.2 5.8-5.9 9-13.8 9-22.1-.3-17.1-14.3-30.8-31.5-30.8h-85c-19.4 2.4-34.3 18.4-35.3 37.9v121.7c0 17.1 13.9 30.9 31.1 30.9 17 0 30.8-13.9 30.8-30.9m256.4-92.5v243.5c-5 46.1-42.2 82.1-88.7 85.9h-163c-48.8.1-95.6-19.1-130.3-53.5C57.4 424.3 38 377.7 38 329.1V97.2C38 43.6 81.7.2 135.6 0h154.2c48.7-.1 95.5 19.1 130.1 53.4 34.5 34.1 54 80.7 54 129.2m-62.2 1.8c.1-32.4-12.7-63.5-35.7-86.3-23-22.9-54.2-35.8-86.7-35.7L138 62.1c-20.9.2-37.7 17.2-37.7 38.1v227.7c0 32.3 12.9 63.3 35.8 86.1 23 22.9 54.1 35.7 86.6 35.6h156.5c16.4-2.2 29.5-14.8 32.4-31.1V184.4z" style="fill:#55139a"/>  </g>
</svg>

