<svg xmlns="http://www.w3.org/2000/svg" viewBox="0 0 256 256">
  <title>Database with Drizzle</title>
  <path d="M0 128v128h256V0H0v128zm129.8-49.4c1.3.9 2.7 2.7 3.3 4 1.2 3.4.7 4.4-14.1 29.9a657 657 0 0 0-8.5 15c-4.7 8.5-10 10.9-14.2 6.2-4.5-4.9-5.2-3.2 16.7-41.5 8.6-15.1 11.4-17.4 16.8-13.6zm83.6.9c1.5 1.4 2.6 3.5 2.6 5s-5 11.2-11.7 22.8a954.9 954.9 0 0 0-13 22.9c-1.8 3.5-5 5.8-8.1 5.8-3 0-7.2-4.3-7.2-7.4 0-3 24.3-46.1 27.9-49.4 3.1-2.9 6.2-2.8 9.5.3zM78 113c3.6 3.6 2.7 6.6-7 23.1l-9.3 16.2C53.9 166 51.3 169 47.4 169c-3.3 0-7.4-3.7-7.4-6.8 0-1.6 3.4-8.7 8-16.6l8-14.2c0-1 10.6-18.2 11.8-19.2 2.4-1.9 7.9-1.5 10.2.8zm83 1.2c2.4 4 2.2 4.9-4.1 15.6a132 132 0 0 0-4.9 8.8c0 .3-1.6 3-3.5 6s-3.5 5.6-3.5 5.9c0 .2-2.2 4.2-5 8.9-4.1 6.9-5.5 8.6-8 9.1-4.1.9-6.8-.2-8.5-3.4-1.9-3.7-1.2-5.7 6.2-18.5 3.5-6 6.3-11 6.3-11.2a335.1 335.1 0 0 0 7.7-13.2c5.1-9.3 7-11.2 11.4-11.2 3.4 0 4.2.5 5.9 3.2z" />
</svg>