<svg xmlns="http://www.w3.org/2000/svg" width="800" height="800" preserveAspectRatio="xMidYMid" viewBox="0 -34 256 256">
<title>Appsignal</title>
  <path fill="#21375A" d="M224 43.8c-19 0-32.6 16.7-46.6 35.4-8.7-39.6-18.3-79.2-49-79.2C97.6 0 88 39.6 79 79.2c-14-18.7-27.5-35.4-46.5-35.4C20.5 43.8 0 52 0 82.8v56c0 30.1 16.1 37.5 25.8 40 16.7 4.4 57 8.5 102.2 8.5 45.3 0 85.5-4 102.2-8.4 9.6-2.6 25.8-10 25.8-40.2V82.8c0-30.8-20.5-39-32.6-39m-95-26.3c18.4 0 25.4 36.3 35.2 79.9-10.7 13.2-22.1 23.8-35.2 23.8-13.1 0-24.5-10.6-35.2-23.8 9.1-40.8 16.2-80 35.2-80M17.7 139v-56c0-19.4 10.5-21.5 15.1-21.5 13.4 0 28 22.4 41.6 40.4-9.7 40.7-20 65.5-44.3 60.4-6.3-1.7-12.2-5.7-12.2-23.1m47.6 28.3c10.7-11.7 17.4-29.9 22.8-49.2C99.5 130 112.4 139 128.5 139c16 0 29-8.9 40.2-20.7 5.3 19.3 12.1 37.5 22.8 49.2a720 720 0 0 1-125.9 0M239.3 139c0 17.4-6 21.4-12.3 23-24.3 5.2-34.5-19.6-44.2-60.3 13.7-18 28-40.4 41.5-40.4 4.6 0 15.1 2.1 15.1 21.6l-.1 56Z"/>
</svg>
