<svg xmlns="http://www.w3.org/2000/svg" width="48.6" height="48">
<title>Hanko</title>
  <g fill="#FF2E4C" fill-rule="nonzero">
    <path d="M36 12.9v29h-4V26H16.5v4h11.7v18c4.5-.7 8.6-2.7 11.8-5.4V22c0-3-.6-6.4-3.8-9.2Z"/>
    <path d="M28.2 14h4V5.5c2.3.5 11.4 6.4 11.8 15.7v17.2A24.3 24.3 0 0 0 28.3 0l-.1.8V14Z"/>
    <path d="M12.4 35.1v-29h4V22h15.7v-4H20.4V0c-4.5.7-8.6 2.6-11.8 5.4V26c0 3 .6 6.4 3.8 9.2Z"/>
    <path d="M20.4 34h-4v8.6C14.2 42.1 5 36.2 4.8 27V9.7A24.3 24.3 0 0 0 20.4 48V33.9Z"/>
  </g>
</svg>
