<svg xmlns="http://www.w3.org/2000/svg" width="228" height="120">
<title>n8n</title>
  <path fill="#EA4B71" fill-rule="evenodd" d="M204 48a24 24 0 0 1-23.2-18h-27.6a12 12 0 0 0-11.8 10l-1 6a24 24 0 0 1-7.8 14 24 24 0 0 1 7.8 14l1 6c1 5.8 6 10 11.8 10h3.6a24 24 0 1 1 0 12h-3.6a24 24 0 0 1-23.6-20l-1-6c-1-5.8-6-10-11.8-10h-9.6a24 24 0 0 1-46.4 0H47.2a24 24 0 1 1 0-12h13.6a24 24 0 0 1 46.4 0h9.6a12 12 0 0 0 11.8-10l1-6a24 24 0 0 1 23.6-20h27.6A24 24 0 1 1 204 48Zm0-12a12 12 0 1 0 0-24 12 12 0 0 0 0 24ZM24 72a12 12 0 1 0 0-24 12 12 0 0 0 0 24Zm72-12a12 12 0 1 1-24 0 12 12 0 0 1 24 0Zm96 36a12 12 0 1 1-24 0 12 12 0 0 1 24 0Z"/>
</svg>
