<svg xmlns="http://www.w3.org/2000/svg" width="1000" height="600" fill="none">
  <title>Oh Dear</title>
  <path fill="#FF3900" d="M310.2 277H264V0h46.3v101c14.3-16.5 39.8-30.4 75-30.4 56.4 0 88 39.4 88 96V277H427V174.4c0-35.9-18.5-61.4-56-61.4-39.4 0-60.7 24.7-60.7 62.2V277Z"/>
  <path fill="#FF3900" fill-rule="evenodd" d="M0 176C0 113 51.4 70.5 116 70.5c64 0 115.4 42.4 115.4 105.3 0 63-51.4 105.4-115.5 105.4C51.4 281.3 0 238.8 0 175.9Zm44.4 0c0 41.2 31.7 65.5 71.5 65.5 39.4 0 71-24.3 71-65.6 0-41.2-31.6-65.6-71-65.6-39.8 0-71.5 24.4-71.5 65.6ZM264 570.3v25.5h46.4v-277H264V419c-14.7-15.8-41.7-29.7-78.8-29.7-70 0-111.3 47.9-111.3 105.4C74 552.2 115.3 600 185.2 600c37 0 64.1-13.9 78.8-29.7Zm2.3-74c0 37-32.4 65.1-74.6 65.1-39.7 0-73.7-23.9-73.7-66.7 0-42.9 34-66.8 73.7-66.8 42.2 0 74.6 28.2 74.6 65.2v3.1ZM386.9 508.2c6.1 32.4 35.1 52.4 73 52.4 33.6 0 58.3-17 68-41.6l37 19.7c-12.3 31.6-50.5 61.3-105 61.3-67.6 0-117-42.8-117-105.3 0-59.4 47.8-105.4 117-105.4 66.8 0 109 44.4 109 102.7v16.2h-182ZM524 473.4c-3-21.2-28.2-45.5-66.4-45.5-32.1 0-60 15.8-68.8 45.5H524ZM672.4 600c37.8 0 69.1-13.1 87.3-31.6 6.6 20 26.3 36.2 69.5 27.4v-36c-24.7 5.5-30.1.5-30.1-11.1v-85.3c0-48.2-35.5-74-98.1-74-49.1 0-93.5 22.3-106.3 56.3l38.3 17c7.7-19.7 35.1-34 66.4-34 37.9 0 54.9 14.7 54.9 34v1.5l-88.1 10.4c-48.7 5.8-78 27-78 62.5 0 41.7 37.4 62.9 84.2 62.9Zm81.9-82.6c0 29.7-43.3 45.2-78 45.2-26.7 0-43-8.9-43-25.9s13.6-23.5 40.6-26.6l80.4-9.6v17Z" clip-rule="evenodd"/>
  <path fill="#FF3900" d="M977.2 392c9.3 0 17 1.6 22.8 3.1v46.3l-1-.2c-8.6-2.2-12.9-3.2-23-3.2-46.3 0-76.5 19.6-76.5 67.9v89.9h-46.3V393.2h46.3v36.6c17.4-27.3 44.9-37.8 77.7-37.8Z"/>
</svg>
